<svg width="17" height="17" viewBox="0 0 17 17" fill="none" xmlns="http://www.w3.org/2000/svg">
<path d="M9.0625 0C10.1897 0 11.2707 0.447766 12.0677 1.2448C12.8647 2.04183 13.3125 3.12283 13.3125 4.25C13.3125 5.37717 12.8647 6.45817 12.0677 7.2552C11.2707 8.05223 10.1897 8.5 9.0625 8.5C7.93533 8.5 6.85433 8.05223 6.0573 7.2552C5.26027 6.45817 4.8125 5.37717 4.8125 4.25C4.8125 3.12283 5.26027 2.04183 6.0573 1.2448C6.85433 0.447766 7.93533 0 9.0625 0ZM9.0625 10.625C13.7587 10.625 17.5625 12.5269 17.5625 14.875V17H0.5625V14.875C0.5625 12.5269 4.36625 10.625 9.0625 10.625Z" fill="#F7F7F7"/>
</svg>
