<svg width="18" height="17" viewBox="0 0 18 17" fill="none" xmlns="http://www.w3.org/2000/svg">
<path d="M17.061 8.143L9.411 0.493C9.105 0.187 8.68 0 8.2125 0H2.2625C1.3275 0 0.5625 0.765 0.5625 1.7V7.65C0.5625 8.1175 0.7495 8.5425 1.064 8.857L8.714 16.507C9.02 16.813 9.445 17 9.9125 17C10.38 17 10.805 16.813 11.111 16.4985L17.061 10.5485C17.3755 10.2425 17.5625 9.8175 17.5625 9.35C17.5625 8.8825 17.367 8.449 17.061 8.143ZM3.5375 4.25C2.832 4.25 2.2625 3.6805 2.2625 2.975C2.2625 2.2695 2.832 1.7 3.5375 1.7C4.243 1.7 4.8125 2.2695 4.8125 2.975C4.8125 3.6805 4.243 4.25 3.5375 4.25Z" fill="#F7F7F7"/>
</svg>
