<svg width="17" height="17" viewBox="0 0 17 17" fill="none" xmlns="http://www.w3.org/2000/svg">
<path fill-rule="evenodd" clip-rule="evenodd" d="M8.5625 16.5C9.61308 16.5 10.6534 16.2931 11.624 15.891C12.5946 15.489 13.4765 14.8997 14.2194 14.1569C14.9622 13.414 15.5515 12.5321 15.9535 11.5615C16.3556 10.5909 16.5625 9.55058 16.5625 8.5C16.5625 7.44943 16.3556 6.40914 15.9535 5.43853C15.5515 4.46793 14.9622 3.58601 14.2194 2.84315C13.4765 2.10028 12.5946 1.511 11.624 1.10896C10.6534 0.706926 9.61308 0.5 8.5625 0.5C6.44077 0.5 4.40594 1.34285 2.90565 2.84315C1.40535 4.34344 0.5625 6.37827 0.5625 8.5C0.5625 10.6217 1.40535 12.6566 2.90565 14.1569C4.40594 15.6571 6.44077 16.5 8.5625 16.5ZM8.35628 11.7356L12.8007 6.40222L11.4354 5.26444L7.61317 9.85022L5.63539 7.87156L4.3785 9.12844L7.04517 11.7951L7.73317 12.4831L8.35628 11.7356Z" fill="#F7F7F7"/>
</svg>
