<svg width="17" height="17" viewBox="0 0 17 17" fill="none" xmlns="http://www.w3.org/2000/svg">
<path d="M5.5625 6C5.5625 2.924 7.9865 0.5 11.0625 0.5C14.1385 0.5 16.5625 2.924 16.5625 6C16.5625 9.076 14.1385 11.5 11.0625 11.5C10.5568 11.5061 10.0524 11.4456 9.5625 11.32V11.5C9.5625 11.7652 9.45714 12.0196 9.26961 12.2071C9.08207 12.3946 8.82772 12.5 8.5625 12.5H7.5625V13.5C7.5625 13.7652 7.45714 14.0196 7.26961 14.2071C7.08207 14.3946 6.82772 14.5 6.5625 14.5H5.5625V15C5.5625 15.3978 5.40446 15.7794 5.12316 16.0607C4.84186 16.342 4.46032 16.5 4.0625 16.5H2.0625C1.66468 16.5 1.28314 16.342 1.00184 16.0607C0.720535 15.7794 0.5625 15.3978 0.5625 15V13.414C0.5625 13.016 0.7205 12.634 1.0025 12.354L5.5425 7.813C5.6765 7.679 5.7425 7.445 5.6845 7.175C5.60265 6.78871 5.56176 6.39487 5.5625 6ZM13.5625 4.5C13.5625 4.23478 13.4571 3.98043 13.2696 3.79289C13.0821 3.60536 12.8277 3.5 12.5625 3.5C12.2973 3.5 12.0429 3.60536 11.8554 3.79289C11.6679 3.98043 11.5625 4.23478 11.5625 4.5C11.5625 4.76522 11.6679 5.01957 11.8554 5.20711C12.0429 5.39464 12.2973 5.5 12.5625 5.5C12.8277 5.5 13.0821 5.39464 13.2696 5.20711C13.4571 5.01957 13.5625 4.76522 13.5625 4.5Z" fill="#F7F7F7"/>
</svg>
